<mxfile host="app.diagrams.net" modified="2023-10-01T16:56:53.603Z" agent="Mozilla/5.0 (Windows NT 10.0; Win64; x64) AppleWebKit/537.36 (KHTML, like Gecko) Chrome/116.0.5845.2271 YaBrowser/23.9.0.2271 Yowser/2.5 Safari/537.36" version="22.0.0" etag="SzVNvfZA1FfaYuqyK3Rz" type="github">
  <diagram name="Страница — 1" id="bwdbFiWJ1GTfbKMtQ8qP">
    <mxGraphModel>
      <root>
        <mxCell id="0" />
        <mxCell id="1" parent="0" />
      </root>
    </mxGraphModel>
  </diagram>
</mxfile>
